<?xml version="1.0" encoding="UTF-8" standalone="no"?>
<!DOCTYPE svg PUBLIC "-//W3C//DTD SVG 1.1//EN"
 "http://www.w3.org/Graphics/SVG/1.1/DTD/svg11.dtd">
<!-- Generated by graphviz version 12.1.2 (20240928.0832)
 -->
<!-- Pages: 1 -->
<svg width="345pt" height="188pt"
 viewBox="0.00 0.00 345.00 188.00" xmlns="http://www.w3.org/2000/svg" xmlns:xlink="http://www.w3.org/1999/xlink">
<g id="graph0" class="graph" transform="scale(1 1) rotate(0) translate(4 184)">
<polygon fill="white" stroke="none" points="-4,4 -4,-184 341,-184 341,4 -4,4"/>
<!-- &#45;8630488066661390532 -->
<g id="node1" class="node">
<title>&#45;8630488066661390532</title>
<polygon fill="none" stroke="black" points="248.5,-180 88.5,-180 88.5,-144 248.5,-144 248.5,-180"/>
<text text-anchor="middle" x="168.5" y="-154.62" font-family="Helvetica,sans-Serif" font-size="20.00">Sum(Projection)</text>
</g>
<!-- &#45;1945192759528114444 -->
<g id="node2" class="node">
<title>&#45;1945192759528114444</title>
<polygon fill="none" stroke="black" points="337,-108 0,-108 0,-72 337,-72 337,-108"/>
<text text-anchor="middle" x="168.5" y="-82.62" font-family="Helvetica,sans-Serif" font-size="20.00">Projection(ReadCSV, [&#39;Kraj&#39;, &#39;Utarg&#39;])</text>
</g>
<!-- &#45;1945192759528114444&#45;&gt;&#45;8630488066661390532 -->
<g id="edge1" class="edge">
<title>&#45;1945192759528114444&#45;&gt;&#45;8630488066661390532</title>
<path fill="none" stroke="black" d="M168.5,-108.3C168.5,-115.59 168.5,-124.27 168.5,-132.46"/>
<polygon fill="black" stroke="black" points="165,-132.38 168.5,-142.38 172,-132.38 165,-132.38"/>
</g>
<!-- 6132200008152468970 -->
<g id="node3" class="node">
<title>6132200008152468970</title>
<polygon fill="none" stroke="black" points="221.12,-36 115.88,-36 115.88,0 221.12,0 221.12,-36"/>
<text text-anchor="middle" x="168.5" y="-10.62" font-family="Helvetica,sans-Serif" font-size="20.00">ReadCSV</text>
</g>
<!-- 6132200008152468970&#45;&gt;&#45;1945192759528114444 -->
<g id="edge2" class="edge">
<title>6132200008152468970&#45;&gt;&#45;1945192759528114444</title>
<path fill="none" stroke="black" d="M168.5,-36.3C168.5,-43.59 168.5,-52.27 168.5,-60.46"/>
<polygon fill="black" stroke="black" points="165,-60.38 168.5,-70.38 172,-60.38 165,-60.38"/>
</g>
</g>
</svg>
